HIERARCHY
ROOT SpineBase
{
  OFFSET 0.000000 0.000000 0.000000
  CHANNELS 6 Xposition Yposition Zposition Zrotation Xrotation Yrotation
  JOINT SpineMid
  {
    OFFSET 0.000000 10.848770 0.000000
    CHANNELS 3 Zrotation Xrotation Yrotation
    JOINT SpineShoulder
    {
      OFFSET 0.061654 7.997847 -0.171641
      CHANNELS 3 Zrotation Xrotation Yrotation
      JOINT Neck
      {
        OFFSET -0.037151 2.669935 -0.176381
        CHANNELS 3 Zrotation Xrotation Yrotation
        JOINT Head
        {
          OFFSET 1.784318 6.508956 3.180781
          CHANNELS 3 Zrotation Xrotation Yrotation
          End Site
          {
            OFFSET 0 0 0
          }
        }
      }
      JOINT ShoulderLeft
      {
        OFFSET -6.412291 2.878850 2.076997
        CHANNELS 3 Zrotation Xrotation Yrotation
        JOINT ElbowLeft
        {
          OFFSET -0.281039 -14.550786 -2.120237
          CHANNELS 3 Zrotation Xrotation Yrotation
          JOINT WristLeft
          {
            OFFSET -1.921018 -9.893629 -7.476871
            CHANNELS 3 Zrotation Xrotation Yrotation
            JOINT HandLeft
            {
              OFFSET -0.292236 -2.664634 -2.433725
              CHANNELS 3 Zrotation Xrotation Yrotation
              JOINT HandTipLeft
              {
                OFFSET -0.666748 -0.507996 -0.046063
                CHANNELS 3 Zrotation Xrotation Yrotation
                End Site
                {
                  OFFSET 0 0 0
                }
              }
              JOINT ThumbLeft
              {
                OFFSET -1.211767 -0.356315 0.150827
                CHANNELS 3 Zrotation Xrotation Yrotation
                End Site
                {
                  OFFSET 0 0 0
                }
              }
            }
          }
        }
      }
      JOINT ShoulderRight
      {
        OFFSET 6.780343 -1.468988 -6.241887
        CHANNELS 3 Zrotation Xrotation Yrotation
        JOINT ElbowRight
        {
          OFFSET -3.290834 -13.432502 -6.248068
          CHANNELS 3 Zrotation Xrotation Yrotation
          JOINT WristRight
          {
            OFFSET -1.961436 0.555230 -15.035051
            CHANNELS 3 Zrotation Xrotation Yrotation
            JOINT HandRight
            {
              OFFSET -0.698630 2.070261 -10.190473
              CHANNELS 3 Zrotation Xrotation Yrotation
              JOINT HandTipRight
              {
                OFFSET 0.372008 -0.665355 -2.499527
                CHANNELS 3 Zrotation Xrotation Yrotation
                End Site
                {
                  OFFSET 0 0 0
                }
              }
              JOINT ThumbRight
              {
                OFFSET -1.652732 -2.185782 -0.837475
                CHANNELS 3 Zrotation Xrotation Yrotation
                End Site
                {
                  OFFSET 0 0 0
                }
              }
            }
          }
        }
      }
    }
  }
  JOINT HipLeft
  {
    OFFSET -3.201904 0.477492 -0.004793
    CHANNELS 3 Zrotation Xrotation Yrotation
    JOINT KneeLeft
    {
      OFFSET -11.153024 -4.795834 -22.232741
      CHANNELS 3 Zrotation Xrotation Yrotation
      JOINT AnkleLeft
      {
        OFFSET -24.483750 0.345573 -13.424792
        CHANNELS 3 Zrotation Xrotation Yrotation
        JOINT FootLeft
        {
          OFFSET 6.709281 -0.047000 -0.440864
          CHANNELS 3 Zrotation Xrotation Yrotation
          End Site
          {
            OFFSET 0 0 0
          }
        }
      }
    }
  }
  JOINT HipRight
  {
    OFFSET 1.774409 -0.342905 -2.997808
    CHANNELS 3 Zrotation Xrotation Yrotation
    JOINT KneeRight
    {
      OFFSET -11.998882 -1.800616 -21.945359
      CHANNELS 3 Zrotation Xrotation Yrotation
      JOINT AnkleRight
      {
        OFFSET -11.710938 -9.313645 -0.848689
        CHANNELS 3 Zrotation Xrotation Yrotation
        JOINT FootRight
        {
          OFFSET -7.439634 1.967603 -1.982238
          CHANNELS 3 Zrotation Xrotation Yrotation
          End Site
          {
            OFFSET 0 0 0
          }
        }
      }
    }
  }
}
MOTION
Frames: 6
Frame Time: 0.033333
220.025316 13.127408 447.514461 0.293173 3.089122 32.773513 0.872884 -2.131693 -32.677714 -0.219929 -0.247531 0.118475 4.379185 -3.536729 -2.507080 0.000000 0.000000 0.000000 -18.700541 -5.270792 1.353021 29.153221 -5.452684 -11.511067 -2.690265 9.884582 -2.770939 75.665189 -6.237847 -84.643814 0.000000 0.000000 0.000000 0.000000 0.000000 0.000000 16.179232 28.143234 -18.763008 9.544064 -54.595511 38.585288 0.138450 23.997252 -8.582459 -4.679293 1.671222 8.696594 0.000000 0.000000 0.000000 0.000000 0.000000 0.000000 -4.779631 3.255895 -18.435797 -11.990087 5.871583 9.559637 -8.910756 -30.089251 92.384676 0.000000 0.000000 0.000000 -2.598801 -10.993852 -48.387860 -36.614143 12.729432 7.610627 42.650865 -7.943141 18.343361 0.000000 0.000000 0.000000
219.846028 12.941222 447.796090 -0.748014 2.123701 34.914083 1.547036 -1.500637 -34.826865 -0.931368 0.043646 0.024471 3.929028 -3.537675 -1.554067 0.000000 0.000000 0.000000 -17.671887 -5.664505 1.406050 28.335015 -3.402739 -10.967361 -4.049532 16.566738 -2.272748 72.967086 -3.358067 -72.475510 0.000000 0.000000 0.000000 0.000000 0.000000 0.000000 16.690919 27.841187 -17.908812 13.808478 -56.415559 42.522564 0.187495 27.792111 -11.135165 -3.515046 8.044819 9.443490 0.000000 0.000000 0.000000 0.000000 0.000000 0.000000 -3.419053 4.068805 -19.789174 -9.075587 4.334333 7.094922 -13.258915 -31.302178 94.974309 0.000000 0.000000 0.000000 -1.484582 -10.260140 -51.223993 -35.737241 11.428454 8.436740 38.994563 -6.829553 20.222383 0.000000 0.000000 0.000000
219.446337 12.977713 447.978244 -2.232165 1.560088 36.773528 1.905389 -1.497333 -36.693887 -0.858129 -0.007365 -0.027146 6.688020 -2.718409 -2.399298 0.000000 0.000000 0.000000 -16.167774 -5.760231 1.512903 30.877258 2.739062 -14.650037 8.001110 6.860874 -11.531903 41.280761 14.743264 -59.864109 0.000000 0.000000 0.000000 0.000000 0.000000 0.000000 19.527606 29.083031 -19.388115 17.362162 -58.831088 47.913175 0.180388 26.920553 -10.710975 -5.119539 8.404226 11.966080 0.000000 0.000000 0.000000 0.000000 0.000000 0.000000 -1.639718 5.486259 -21.758799 -5.033125 0.633524 4.939683 -19.586345 -32.014050 94.419628 0.000000 0.000000 0.000000 -0.382327 -10.956479 -54.038037 -36.185358 9.879670 10.260077 36.918820 -5.976718 20.214506 0.000000 0.000000 0.000000
219.118589 12.772785 448.264498 -3.499366 0.821055 38.452597 1.775995 -1.402015 -38.422321 -0.580132 -0.127340 -0.083651 7.535642 -1.423450 -2.407312 0.000000 0.000000 0.000000 -12.080949 -4.255740 1.624523 25.295886 6.533819 -12.505069 15.904178 -5.322270 -13.436599 18.378031 26.731103 -50.822796 0.000000 0.000000 0.000000 0.000000 0.000000 0.000000 20.403179 29.255245 -19.130864 15.459202 -57.886459 45.339464 -0.273890 24.873831 -10.247734 -7.604099 3.397200 20.498487 0.000000 0.000000 0.000000 0.000000 0.000000 0.000000 -0.119908 6.061889 -22.856750 -4.745370 -0.690850 11.183617 -13.210394 -24.521546 95.256638 0.000000 0.000000 0.000000 0.902231 -10.710113 -57.089968 -36.270216 5.259382 13.695875 45.072211 -8.975327 7.012579 0.000000 0.000000 0.000000
218.763427 12.728995 448.421532 -3.590270 0.348041 40.043547 0.975423 -1.139006 -40.072214 -0.526337 -0.390215 -0.141631 7.979053 0.040442 -2.418017 0.000000 0.000000 0.000000 -10.113209 -2.558806 1.842064 22.495194 5.681274 -10.693413 18.925709 -19.036071 -11.311994 8.526212 40.918868 -52.145592 0.000000 0.000000 0.000000 0.000000 0.000000 0.000000 19.925276 29.178605 -18.085895 12.108144 -56.075029 38.999073 -0.924989 22.044307 -8.204487 -7.462505 0.491843 20.702372 0.000000 0.000000 0.000000 0.000000 0.000000 0.000000 0.312973 6.305244 -24.065680 -4.224294 -1.209865 14.423291 -7.682641 -19.368268 98.413216 0.000000 0.000000 0.000000 1.030086 -10.289476 -59.419278 -35.657789 3.910513 14.892970 49.653923 -12.001144 0.922027 0.000000 0.000000 0.000000
219.140719 12.738066 448.404242 -3.364100 0.285796 39.593106 0.723790 -0.967876 -39.631026 -0.480126 -0.601561 -0.151790 7.726330 1.502633 -2.661058 0.000000 0.000000 0.000000 -9.143669 -1.775522 1.825333 15.193446 6.478686 -5.408558 18.050128 -30.311425 -7.470228 21.949094 49.992846 -70.434184 0.000000 0.000000 0.000000 0.000000 0.000000 0.000000 18.664055 26.959752 -16.475011 7.488035 -51.506130 33.611323 -0.760232 20.170765 -7.639294 -7.645826 2.445249 21.319906 0.000000 0.000000 0.000000 0.000000 0.000000 0.000000 0.097424 6.589716 -23.465560 -3.831010 -2.351807 23.744505 -1.993167 -12.261207 89.829628 0.000000 0.000000 0.000000 0.549813 -11.195887 -59.179508 -39.224388 5.591358 14.416919 58.028773 -14.813010 -0.146186 0.000000 0.000000 0.000000
